HIERARCHY
ROOT hip
{
  OFFSET 0 0 0
  CHANNELS 6 Xposition Yposition Zposition Zrotation Yrotation Xrotation
  JOINT abdomen
  {
    OFFSET 0 20.6881 -0.73152
    CHANNELS 3 Zrotation Xrotation Yrotation
    JOINT chest
    {
      OFFSET 0 11.7043 -0.48768
      CHANNELS 3 Zrotation Xrotation Yrotation
      JOINT neck
      {
        OFFSET 0 22.1894 -2.19456
        CHANNELS 3 Zrotation Xrotation Yrotation
        JOINT head
        {
          OFFSET -0.24384 7.07133 1.2192
          CHANNELS 3 Zrotation Xrotation Yrotation
          JOINT leftEye
          {
            OFFSET 4.14528 8.04674 8.04672
            CHANNELS 3 Zrotation Xrotation Yrotation
            End Site
            {
              OFFSET 1 0 0
            }
          }
          JOINT rightEye
          {
            OFFSET -3.6576 8.04674 8.04672
            CHANNELS 3 Zrotation Xrotation Yrotation
            End Site
            {
              OFFSET 1 0 0
            }
          }
        }
      }
      JOINT rCollar
      {
        OFFSET -2.68224 19.2634 -4.8768
        CHANNELS 3 Zrotation Xrotation Yrotation
        JOINT rShldr
        {
          OFFSET -8.77824 -1.95073 1.46304
          CHANNELS 3 Zrotation Xrotation Yrotation
          JOINT rForeArm
          {
            OFFSET -28.1742 -1.7115 0.48768
            CHANNELS 3 Zrotation Xrotation Yrotation
            JOINT rHand
            {
              OFFSET -22.5879 0.773209 7.07136
              CHANNELS 3 Zrotation Xrotation Yrotation
              JOINT rThumb1
              {
                OFFSET -1.2192 -0.487915 3.41376
                CHANNELS 3 Zrotation Xrotation Yrotation
                JOINT rThumb2
                {
                  OFFSET -3.37035 -0.52449 3.41376
                  CHANNELS 3 Zrotation Xrotation Yrotation
                  End Site
                  {
                    OFFSET -1.78271 -1.18214 1.43049
                  }
                }
              }
              JOINT rIndex1
              {
                OFFSET -7.75947 0.938293 5.60832
                CHANNELS 3 Zrotation Xrotation Yrotation
                JOINT rIndex2
                {
                  OFFSET -2.54057 -0.884171 1.56538
                  CHANNELS 3 Zrotation Xrotation Yrotation
                  End Site
                  {
                    OFFSET -1.62519 -0.234802 1.16502
                  }
                }
              }
              JOINT rMid1
              {
                OFFSET -8.24714 1.18213 3.41376
                CHANNELS 3 Zrotation Xrotation Yrotation
                JOINT rMid2
                {
                  OFFSET -3.10165 -0.590103 1.0647
                  CHANNELS 3 Zrotation Xrotation Yrotation
                  End Site
                  {
                    OFFSET -2.48547 -0.328903 0.83742
                  }
                }
              }
              JOINT rRing1
              {
                OFFSET -8.82822 0.546677 1.51678
                CHANNELS 3 Zrotation Xrotation Yrotation
                JOINT rRing2
                {
                  OFFSET -2.60934 -0.819778 -0.0198488
                  CHANNELS 3 Zrotation Xrotation Yrotation
                  End Site
                  {
                    OFFSET -2.33842 -0.294052 0.168128
                  }
                }
              }
              JOINT rPinky1
              {
                OFFSET -8.27202 -0.0477905 -0.4584
                CHANNELS 3 Zrotation Xrotation Yrotation
                JOINT rPinky2
                {
                  OFFSET -1.82734 -0.647385 -0.700984
                  CHANNELS 3 Zrotation Xrotation Yrotation
                  End Site
                  {
                    OFFSET -1.69225 -0.51767 -0.607171
                  }
                }
              }
            }
          }
        }
      }
      JOINT lCollar
      {
        OFFSET 2.68224 19.2634 -4.8768
        CHANNELS 3 Zrotation Xrotation Yrotation
        JOINT lShldr
        {
          OFFSET 8.77824 -1.95073 1.46304
          CHANNELS 3 Zrotation Xrotation Yrotation
          JOINT lForeArm
          {
            OFFSET 28.1742 -1.7115 0.48768
            CHANNELS 3 Zrotation Xrotation Yrotation
            JOINT lHand
            {
              OFFSET 22.5879 0.773209 7.07136
              CHANNELS 3 Zrotation Xrotation Yrotation
              JOINT lThumb1
              {
                OFFSET 1.2192 -0.487915 3.41376
                CHANNELS 3 Zrotation Xrotation Yrotation
                JOINT lThumb2
                {
                  OFFSET 3.37035 -0.52449 3.41376
                  CHANNELS 3 Zrotation Xrotation Yrotation
                  End Site
                  {
                    OFFSET 1.78271 -1.18214 1.43049
                  }
                }
              }
              JOINT lIndex1
              {
                OFFSET 7.75947 0.938293 5.60832
                CHANNELS 3 Zrotation Xrotation Yrotation
                JOINT lIndex2
                {
                  OFFSET 2.54057 -0.884171 1.56538
                  CHANNELS 3 Zrotation Xrotation Yrotation
                  End Site
                  {
                    OFFSET 1.62519 -0.234802 1.16502
                  }
                }
              }
              JOINT lMid1
              {
                OFFSET 8.24714 1.18213 3.41376
                CHANNELS 3 Zrotation Xrotation Yrotation
                JOINT lMid2
                {
                  OFFSET 3.10165 -0.590103 1.0647
                  CHANNELS 3 Zrotation Xrotation Yrotation
                  End Site
                  {
                    OFFSET 2.48547 -0.328903 0.83742
                  }
                }
              }
              JOINT lRing1
              {
                OFFSET 8.82822 0.546677 1.51678
                CHANNELS 3 Zrotation Xrotation Yrotation
                JOINT lRing2
                {
                  OFFSET 2.60934 -0.819778 -0.0198488
                  CHANNELS 3 Zrotation Xrotation Yrotation
                  End Site
                  {
                    OFFSET 2.33842 -0.294052 0.168128
                  }
                }
              }
              JOINT lPinky1
              {
                OFFSET 8.27202 -0.0477905 -0.4584
                CHANNELS 3 Zrotation Xrotation Yrotation
                JOINT lPinky2
                {
                  OFFSET 1.82734 -0.647385 -0.700984
                  CHANNELS 3 Zrotation Xrotation Yrotation
                  End Site
                  {
                    OFFSET 1.69225 -0.51767 -0.607171
                  }
                }
              }
            }
          }
        }
      }
    }
  }
  JOINT rButtock
  {
    OFFSET -8.77824 4.35084 1.2192
    CHANNELS 3 Zrotation Xrotation Yrotation
    JOINT rThigh
    {
      OFFSET 0 -1.70687 -2.19456
      CHANNELS 3 Zrotation Xrotation Yrotation
      JOINT rShin
      {
        OFFSET 0 -36.8199 0.73152
        CHANNELS 3 Zrotation Xrotation Yrotation
        JOINT rFoot
        {
          OFFSET 0.73152 -45.1104 -5.12064
          CHANNELS 3 Zrotation Xrotation Yrotation
          End Site
          {
            OFFSET -1.1221 -3.69964 12.103
          }
        }
      }
    }
  }
  JOINT lButtock
  {
    OFFSET 8.77824 4.35084 1.2192
    CHANNELS 3 Zrotation Xrotation Yrotation
    JOINT lThigh
    {
      OFFSET 0 -1.70687 -2.19456
      CHANNELS 3 Zrotation Xrotation Yrotation
      JOINT lShin
      {
        OFFSET 0 -36.8199 0.73152
        CHANNELS 3 Zrotation Xrotation Yrotation
        JOINT lFoot
        {
          OFFSET -0.73152 -45.1104 -5.12064
          CHANNELS 3 Zrotation Xrotation Yrotation
          End Site
          {
            OFFSET 1.1221 -3.69964 12.103
          }
        }
      }
    }
  }
}
MOTION
Frames:	9
Frame Time:	0.03333
0.0 0.0 0.0 0.0 0.0 0.0 0.0 0.0 0.0 0.0 0.0 0.0 0.0 0.0 0.0 0.0 0.0 0.0 0.0 0.0 0.0 0.0 0.0 0.0 0.0 0.0 0.0 0.0 0.0 0.0 0.0 0.0 0.0 0.0 0.0 0.0 0.0 0.0 0.0 0.0 0.0 0.0 0.0 0.0 0.0 0.0 0.0 0.0 0.0 0.0 0.0 0.0 0.0 0.0 0.0 0.0 0.0 0.0 0.0 0.0 0.0 0.0 0.0 0.0 0.0 0.0 0.0 0.0 0.0 0.0 0.0 0.0 0.0 0.0 0.0 0.0 0.0 0.0 0.0 0.0 0.0 0.0 0.0 0.0 0.0 0.0 0.0 0.0 0.0 0.0 0.0 0.0 0.0 0.0 0.0 0.0 0.0 0.0 0.0 0.0 0.0 0.0 0.0 0.0 0.0 0.0 0.0 0.0 0.0 0.0 0.0 0.0 0.0 0.0 0.0 0.0 0.0 0.0 0.0 0.0 0.0 0.0 0.0 0.0 0.0 0.0 0.0 0.0 0.0 0.0 0.0 0.0
-0.004 65.0339 -0.1307 179.088002 -57.619338 -179.898186 -2.8586 0.632097 81.883693 6.270753 -11.556424 -149.527223 10.597087 -5.489551 129.82952 22.741832 55.252943 150.491832 -166.571604 -3.521977 -29.27279 -9.265219 2.468088 -29.774633 -90.159181 -27.011242 148.935359 -126.702354 55.02392 125.776434 73.66284 -40.249123 30.102836 -98.185398 68.837183 84.90972 -2.41979 -9.523268 71.085576 -169.871499 28.216008 15.816518 -18.876909 -15.526571 -38.490953 -167.66985 -9.38463 92.176352 125.620391 -47.704289 163.674998 -39.184971 -5.58711 0.130612 -82.543686 -30.527857 -72.731976 102.72186 33.999467 -45.468782 25.132547 71.730717 -22.052849 -28.180329 78.889507 75.48203 87.898771 -34.547409 -154.232608 148.484515 43.763635 -151.384263 168.034502 28.907929 -14.213404 21.746928 -19.438703 170.570618 -176.377467 -15.861187 37.761973 46.88867 -0.155942 -48.222415 -128.788887 -40.664199 -40.65808 -88.351687 62.529474 81.283487 157.301672 -16.001638 116.375533 -153.365003 11.451822 128.933409 168.408684 -51.692574 121.788345 -155.995024 36.078508 147.425653 168.568377 -5.539908 135.55319 34.916394 -47.748151 33.293922 1.16578 -46.128234 -0.198417 0.316454 48.335156 -0.423604 -5.897073 2.869835 -143.864539 -80.905495 26.118079 97.722691 -21.61748 40.530595 -148.625161 0.51698 45.452314 -1.428253 -6.777473 -1.078993 -105.737316 61.330457 56.700239 -67.27838
0.1938 60.4556 -0.9994 4.328496 -25.654855 0.88354 -10.399905 17.98231 -0.0 5.385734 -14.363341 0.679784 -11.127479 29.293473 -75.171166 42.485056 2.111842 51.308831 -4.538052 0.602868 -15.126872 16.543865 -0.191279 -1.315626 -152.339939 19.398341 151.134936 -123.25101 -87.9227 -99.595625 -84.240706 -1.874927 -30.859554 40.276923 -46.723792 29.356986 -2.461183 -4.423353 -14.712588 42.663125 -41.147728 12.071205 -94.997573 41.231036 60.729332 -4.323256 9.527007 18.405337 -132.136944 50.631179 97.404523 40.700232 -12.795082 21.384226 161.38263 66.065564 -160.572035 152.686423 14.044904 -162.825282 -115.378989 -37.392861 -111.71757 -77.515985 81.87246 136.311032 154.205027 -1.806276 -163.227275 59.566383 17.25523 2.291278 168.129003 -8.478444 98.382205 9.672095 -31.117799 11.791028 16.660491 22.512058 -8.657656 168.028483 -35.225682 -105.996192 112.73999 20.447608 -95.311159 173.53485 -39.857249 -82.503856 33.687946 44.755777 -29.176061 -3.056707 68.698923 2.62624 44.723689 -63.374395 59.473478 121.721057 54.381833 -142.061646 -178.982383 47.842217 160.062908 150.416508 -51.355622 122.068277 -102.852008 65.821837 -43.64824 128.566975 -5.917533 -8.775925 -63.053526 56.063837 159.754898 -155.82389 12.300927 96.114022 -1.191351 -5.627364 -11.973767 17.197598 -6.72836 -65.242121 -65.550153 0.413006 -109.362587 116.444391 54.832004 141.59431
-0.1993 59.9479 -1.1512 3.815759 -29.217597 0.777978 -5.178162 17.428927 0.0 -1.397966 -13.790965 -3.389864 4.393827 19.646417 62.607805 -23.333439 -9.991497 -95.447464 -0.001977 -0.00025 14.423643 60.948698 11.323682 19.126751 15.789077 -88.780201 -4.773359 -34.73713 -64.266842 -78.96444 8.860141 -44.702273 -91.890826 160.708761 -28.489409 137.142254 49.460353 -51.948119 -0.697695 9.32054 10.047178 8.684032 -135.969038 15.307888 90.62575 -153.137883 10.377977 86.141352 -59.299067 33.109269 45.195954 2.494388 60.712197 16.976304 -104.020046 -88.951279 -118.521643 -84.339312 55.11933 89.672215 -137.287095 -6.612955 -152.768661 -46.459508 -73.918175 -70.289563 -2.952554 -21.567938 6.157715 -81.212609 28.24023 15.198132 12.071942 19.246781 -91.335737 6.995292 -39.035451 14.668785 79.889469 47.075041 -60.519688 -30.084223 -47.333549 -39.994288 72.309307 41.439128 -78.46238 1.634506 0.25872 18.345549 -34.46152 -75.512324 -15.575345 3.016437 -40.023012 16.796185 146.544822 0.111464 178.741869 -64.787647 69.77151 46.191155 138.424866 62.419169 -157.508079 99.545166 45.22963 -159.542689 -5.709416 4.097697 7.775705 -56.754715 -59.175177 180.0 -70.060731 -34.715805 24.280122 152.59437 -19.527154 -83.282048 -129.785974 52.56851 -34.550913 163.150926 50.638643 -171.78775 11.575903 -64.65183 61.164732 45.993118 12.791073 145.577969
-0.5369999999999999 60.555499999999995 -1.8993 1.507642 -36.318181 3.302574 -0.411263 13.771552 -56.40502 7.044951 -8.929701 58.538393 -2.553608 35.572016 -168.1484 9.134456 42.191774 129.360399 -25.028094 -5.818973 25.795115 10.50186 -0.562853 -6.118623 -3.881351 -68.67422 -24.250262 -116.589243 -21.925739 -169.040313 -162.257778 -21.205586 -120.452309 -9.414174 15.96376 -0.594352 -164.893704 -13.511926 92.078985 25.043123 -73.71985 13.875233 60.619559 -60.344883 30.429816 -109.880078 -79.88242 -159.315134 3.883322 -18.736581 3.407227 12.590215 -1.906071 -13.180774 10.314187 -1.914713 8.456314 -29.019949 -4.089183 8.105877 -130.438044 33.016949 176.744493 9.016402 -68.786397 -29.63135 44.757949 61.22835 -46.799302 111.879798 -5.969239 -105.332063 173.169794 1.929291 93.133402 5.932527 -20.372406 11.005585 -9.092691 16.389899 5.173909 156.038334 -50.43615 -106.43209 -12.741107 -0.80193 7.587392 20.34317 3.620331 -9.469651 159.829416 34.119632 -136.992329 15.095392 -4.503257 -14.33244 152.190352 13.402843 -173.736905 156.249465 5.368913 164.855673 17.457921 17.44108 -31.256599 -38.026294 23.557588 17.745283 1.562283 -6.938364 12.72254 -46.404907 -49.212979 -39.103538 9.133617 72.405475 -79.833646 153.209221 -14.853644 -71.592701 -33.315056 7.507377 -8.105489 48.749576 -8.071252 -0.0 -31.668571 54.25968 102.52455 -82.966703 17.074216 -18.2962
-0.5105000000000001 61.6626 -2.7359999999999998 -0.060321 -40.34188 4.806789 -0.168663 15.045847 -0.0 -2.312389 -11.893733 4.671031 1.496901 15.248241 -7.235886 -4.516427 -25.872584 -30.638423 -15.575978 -1.553176 11.319897 8.21159 -1.980127 -27.072618 -99.767869 -77.848201 -125.110037 73.818195 44.452139 -40.219543 -2.624087 12.903813 58.870508 -10.650243 23.419546 1.404767 -78.542521 39.594441 46.288188 82.944801 -45.064426 30.810479 -141.559205 11.718161 107.993205 -78.106132 37.522858 37.186377 -159.970367 -2.624454 132.653744 -88.315002 47.870786 72.594793 7.633027 -6.088532 2.73459 -169.063189 74.675846 154.822195 -160.836228 -48.506741 -155.166383 -171.603268 0.169456 -170.449974 -2.97062 -27.531596 -1.324779 83.679334 -14.311928 166.914514 -155.507639 -34.35672 112.039717 14.857575 15.324429 7.798598 6.366704 13.523293 -13.033511 55.116298 41.981553 -61.792325 -20.061196 -46.562418 15.081362 -34.094533 4.304909 -20.112602 77.9143 59.543072 -62.680495 -149.207749 -57.013038 -94.00581 142.036322 40.215082 -157.639366 -4.158126 0.723748 12.273022 22.273377 -55.446738 5.182811 37.774021 -39.320195 3.72991 0.827183 -10.700862 4.446215 -30.964934 -50.152563 -25.131767 52.982658 74.720881 98.61869 -90.318031 -7.609984 -172.902366 -173.852616 66.640195 -4.675907 -162.927354 53.485218 171.474044 5.124934 -60.821849 -120.153874 81.478471 -41.044605 0.543277
-0.39909999999999995 62.59780000000001 -3.3237 -1.150549 -44.886666 6.626372 -0.558184 14.484454 -0.0 0.932884 -11.56415 2.530737 -8.737386 23.459469 -85.985083 38.398304 -1.09887 59.297651 -4.960266 0.868443 -19.849595 5.657486 -1.822142 -35.680681 -1.981045 0.023917 -4.503716 -117.564863 -9.119607 144.99426 -173.333324 10.859681 -120.892368 -9.265516 27.903558 1.927044 -167.992405 -2.259022 97.820973 -179.901875 -13.287763 90.254053 -3.441955 -10.536065 -8.497462 -146.255068 -44.585963 108.953383 -171.170922 -30.99114 123.65776 63.984275 -37.467479 48.977686 15.117276 -13.556328 3.54595 81.250894 63.464309 -109.110863 -161.648714 -56.777899 -152.581615 -69.267745 -69.550186 -42.089521 2.043139 10.843521 -5.106362 103.904509 -28.650646 -135.900772 -179.342577 -16.176592 99.784393 10.646459 7.369731 10.362396 92.606854 16.089403 -42.378631 -155.956882 -49.302923 -17.907715 9.780677 19.8895 12.087775 162.671022 8.316705 -68.984508 7.107225 10.559856 -14.538485 26.720682 -75.122418 75.66482 138.933606 0.371297 179.074082 -17.829641 -14.778788 15.497817 20.923694 -46.427139 2.756295 54.853572 54.435738 -56.119377 -176.780007 79.245725 -3.277434 167.337876 14.29719 -89.657222 -84.409508 3.324485 -71.396221 90.902842 -13.385448 176.210693 10.049748 7.669855 2.606816 0.576904 -21.716966 -179.30874 41.498352 -63.689938 48.374676 -66.163284 2.587226 -159.297515
-1.0741 62.119 -3.5755000000000003 -0.722719 -42.112065 5.362901 -4.625878 9.223741 -180.0 -6.007846 5.131822 -178.570597 6.52456 21.654146 118.163329 -31.547919 30.818907 -130.41788 22.43291 -4.351881 -21.693168 1.442003 -0.562802 -42.63885 -161.839177 4.87722 157.981125 145.711059 -3.365004 -168.915777 -3.599009 -19.457966 66.528539 -2.551963 29.766788 -4.185857 -81.012463 38.960739 39.934737 28.265011 -9.57158 6.307399 1.344362 -42.036329 -17.183178 -94.50393 -8.342087 132.151694 -29.389345 24.035909 47.9914 177.242607 40.646532 -159.430307 -125.915779 -1.037947 175.949469 63.883847 -19.635026 29.413222 -161.140247 -51.258982 -153.923016 -33.931748 -53.822456 12.091082 -9.515629 -13.854995 7.003477 87.929895 -10.175535 -165.257589 -16.202287 46.850458 127.999062 171.559444 2.660994 -134.262059 -2.524615 -17.491029 -35.094844 11.376691 -37.051177 118.895943 86.204235 79.994083 -63.654318 25.670546 -49.674644 -1.139554 48.107712 34.37113 -58.035872 21.560888 -73.591969 98.413657 59.001619 72.175683 -96.881496 81.23022 -57.577688 99.571007 154.244312 22.808904 138.823007 139.229409 44.97295 79.453717 26.270551 6.858778 26.551208 -71.840568 -40.362519 -161.537457 -79.852501 -9.77331 -149.409842 -124.07908 -25.825042 165.596109 5.002217 3.196815 -6.731026 9.725733 -14.216153 -34.846943 -64.486102 21.336964 -72.297964 -114.728379 17.401214 -177.613903
-2.36 60.70140000000001 -3.6285 -2.687702 -48.938116 6.630284 -6.756753 14.122519 25.899833 4.46972 -12.836127 -22.793807 -17.043658 15.3372 -53.738788 33.442796 -10.19723 43.949942 156.980661 -6.717386 32.154943 -9.47083 5.174525 -57.224115 -156.991318 25.204551 149.143062 175.10079 74.902713 138.643014 -149.762734 -77.740265 106.246075 154.276049 -34.129733 134.274234 7.892312 -11.014319 3.188973 -118.02037 56.665839 88.877574 -123.260073 46.893461 98.910378 -24.19602 -32.239398 15.630829 15.127204 3.703303 22.541024 148.542594 -12.751251 -175.022711 -61.119648 73.531423 95.206448 -104.966405 -17.600925 -143.988503 -9.731237 -25.866606 15.127731 -145.036375 -12.752584 -92.504172 69.389431 72.87271 -83.93869 -136.325962 12.49754 -115.537782 69.269111 81.570183 -156.813064 8.988681 -8.794632 5.395199 -6.506832 -0.015209 -34.117165 -34.169267 9.955477 49.331571 137.553706 -33.027816 173.571288 136.345627 -3.143781 -178.685529 176.229838 -12.933784 -114.93363 90.464685 -0.556319 -57.06414 -11.057315 -0.815691 10.211462 164.53758 40.37968 -145.387406 87.473493 -22.841089 70.552688 -96.840318 -0.565124 -18.259817 167.568276 78.639239 -0.0 -176.821806 22.264815 -1.146756 54.281116 72.380417 -164.46451 110.608118 65.393484 -12.302476 12.64141 4.164697 -0.0 -0.142385 -23.991755 179.649825 29.295513 -59.834036 -87.400764 -73.021728 15.614892 -5.848619
